<svg width="112" height="89" viewBox="0 0 112 89" fill="none" xmlns="http://www.w3.org/2000/svg">
<g clip-path="url(#clip0)">
<path d="M12.2611 11.5749C12.0514 5.55299 16.7432 0 23.0851 0H88.0696C94.4115 0 99.1033 5.55299 98.8936 11.5749C98.6922 17.3595 98.9537 24.8528 100.84 30.9626C102.731 37.0913 105.922 40.9651 111.147 41.4629V47.1071C105.922 47.6049 102.731 51.4787 100.84 57.6074C98.9537 63.7172 98.6922 71.2105 98.8936 76.9953C99.1033 83.017 94.4115 88.57 88.0696 88.57H23.0851C16.7432 88.57 12.0514 83.017 12.2613 76.9953C12.4625 71.2105 12.201 63.7172 10.3149 57.6074C8.42327 51.4787 5.2252 47.6049 0 47.1071V41.4629C5.22498 40.9651 8.42327 37.0913 10.3149 30.9626C12.201 24.8528 12.4625 17.3595 12.2611 11.5749V11.5749Z" fill="url(#paint0_linear)"/>
<g filter="url(#filter0_d)">
<path d="M57.9837 67.8292C68.251 67.8292 74.4381 62.802 74.4381 54.5101C74.4381 48.2422 70.0235 43.7045 63.4685 42.9862V42.725C68.2845 41.9416 72.0637 37.4692 72.0637 32.4746C72.0637 25.3579 66.4451 20.7221 57.8834 20.7221H38.6194V67.8292H57.9837ZM46.1109 26.6963H56.0774C61.4954 26.6963 64.5721 29.112 64.5721 33.4864C64.5721 38.1548 60.9937 40.7663 54.5055 40.7663H46.1109V26.6963V26.6963ZM46.1109 61.8553V46.3488H56.0104C63.1005 46.3488 66.7794 48.9603 66.7794 54.0531C66.7794 59.1457 63.201 61.8553 56.4452 61.8553H46.1109V61.8553Z" fill="url(#paint1_linear)"/>
<path d="M57.9837 67.8292C68.251 67.8292 74.4381 62.802 74.4381 54.5101C74.4381 48.2422 70.0235 43.7045 63.4685 42.9862V42.725C68.2845 41.9416 72.0637 37.4692 72.0637 32.4746C72.0637 25.3579 66.4451 20.7221 57.8834 20.7221H38.6194V67.8292H57.9837ZM46.1109 26.6963H56.0774C61.4954 26.6963 64.5721 29.112 64.5721 33.4864C64.5721 38.1548 60.9937 40.7663 54.5055 40.7663H46.1109V26.6963V26.6963ZM46.1109 61.8553V46.3488H56.0104C63.1005 46.3488 66.7794 48.9603 66.7794 54.0531C66.7794 59.1457 63.201 61.8553 56.4452 61.8553H46.1109V61.8553Z" stroke="white"/>
</g>
</g>
<defs>
<filter id="filter0_d" x="22.1194" y="8.22212" width="68.8188" height="80.1071" filterUnits="userSpaceOnUse" color-interpolation-filters="sRGB">
<feFlood flood-opacity="0" result="BackgroundImageFix"/>
<feColorMatrix in="SourceAlpha" type="matrix" values="0 0 0 0 0 0 0 0 0 0 0 0 0 0 0 0 0 0 127 0" result="hardAlpha"/>
<feOffset dy="4"/>
<feGaussianBlur stdDeviation="8"/>
<feColorMatrix type="matrix" values="0 0 0 0 0 0 0 0 0 0 0 0 0 0 0 0 0 0 0.15 0"/>
<feBlend mode="normal" in2="BackgroundImageFix" result="effect1_dropShadow"/>
<feBlend mode="normal" in="SourceGraphic" in2="effect1_dropShadow" result="shape"/>
</filter>
<linearGradient id="paint0_linear" x1="16.5155" y1="2.34407" x2="113.639" y2="79.4406" gradientUnits="userSpaceOnUse">
<stop stop-color="#9013FE"/>
<stop offset="1" stop-color="#6610F2"/>
</linearGradient>
<linearGradient id="paint1_linear" x1="42.0074" y1="23.8227" x2="63.717" y2="60.5385" gradientUnits="userSpaceOnUse">
<stop stop-color="white"/>
<stop offset="1" stop-color="#F1E5FC"/>
</linearGradient>
<clipPath id="clip0">
<rect width="111.147" height="88.57" fill="white"/>
</clipPath>
</defs>
</svg>
