<svg width="89" height="89" viewBox="0 0 89 89" fill="none" xmlns="http://www.w3.org/2000/svg">
<g clip-path="url(#clip0)">
<path d="M18.752 0H22.7307V3.94413H26.398V0H30.3768V11.9362H26.398V7.95746H22.7653V11.9362H18.752V0ZM35.6356 3.97873H32.1239V0H43.1433V3.97873H39.6143V11.9362H35.6356V3.97873ZM44.8905 0H49.0595L51.6197 4.20362L54.18 0H58.349V11.9362H54.3702V6.01999L51.5851 10.3101L48.8 6.01999V11.9362H44.8905V0ZM60.321 0H64.2998V7.99206H69.9392V11.9362H60.321" fill="black"/>
<path d="M18.6134 81.4775L12.9048 17.4026H75.6649L69.9563 81.4429L44.233 88.57" fill="#E44D26"/>
<path d="M44.2849 83.1209V22.6615H69.9391L65.0435 77.3258" fill="#F16529"/>
<path d="M24.5645 30.4978H44.2851V38.3515H33.1793L33.9058 46.3955H44.2851V54.2318H26.7095L24.5645 30.4978ZM27.0555 58.176H34.9437L35.4973 64.4554L44.2851 66.8081V75.0077L28.1626 70.51" fill="#EBEBEB"/>
<path d="M63.9366 30.4978H44.2505V38.3515H63.21L63.9366 30.4978ZM62.5008 46.3955H44.2505V54.2491H53.9378L53.021 64.4554L44.2505 66.8081V74.9731L60.3384 70.51" fill="white"/>
</g>
<defs>
<clipPath id="clip0">
<rect width="88.57" height="88.57" fill="white"/>
</clipPath>
</defs>
</svg>
