<svg width="178" height="89" viewBox="0 0 178 89" fill="none" xmlns="http://www.w3.org/2000/svg">
<path d="M28.6628 51.8632C28.6628 49.6296 27.2269 47.2365 23.0789 47.077V41.4931C27.2269 41.3335 28.6628 38.9404 28.6628 36.7069C28.6628 32.7184 28.0246 30.1657 28.0246 25.5391C28.0246 18.5193 30.5772 16.2858 36.3207 16.2858H51.6365V21.391H39.1924C36.4802 21.391 35.6825 22.3483 35.6825 25.8582C35.6825 29.368 36.0016 32.5588 36.0016 36.3878C36.0016 41.3335 34.4062 43.248 31.2154 44.0457V44.3648C34.4062 45.1625 36.0016 47.077 36.0016 52.0227C36.0016 56.0112 35.6825 59.0425 35.6825 62.5524C35.6825 66.0622 36.4802 67.179 39.1924 67.179H40.4687V72.1247H36.3207C30.5772 72.1247 28.0246 69.8912 28.0246 62.8714C28.0246 58.2448 28.6628 55.8517 28.6628 51.8632V51.8632ZM42.2237 16.7644H51.7961V52.6609C51.7961 54.7349 52.7533 55.3731 53.551 55.3731C53.8701 55.3731 54.1892 55.3731 54.6678 55.2135L55.7845 62.2333C54.6678 62.7119 53.0724 63.031 50.9983 63.031C44.4572 63.031 42.2237 58.7234 42.2237 52.1823V16.7644ZM69.1859 29.2085C78.2797 29.2085 82.9063 35.9092 82.9063 44.6839C82.9063 46.4388 82.7468 47.8747 82.5873 48.6724H62.9638C63.7615 53.6181 67.1119 55.6921 71.4195 55.6921C73.8126 55.6921 76.0461 55.054 78.4392 53.6181L81.63 59.3616C78.2797 61.5951 73.9721 63.031 70.1431 63.031C60.8898 63.031 53.8701 56.8089 53.8701 46.1197C53.7105 35.7496 61.3684 29.2085 69.1859 29.2085V29.2085ZM74.7698 42.7694C74.7698 39.1 73.1744 36.3878 69.3454 36.3878C66.3142 36.3878 63.7615 38.4618 63.1234 42.7694H74.7698ZM88.3307 52.6609C91.2024 54.8944 93.9146 56.0112 96.6268 56.0112C99.4985 56.0112 100.775 54.8944 100.775 53.299C100.775 51.225 97.584 50.1082 94.2337 48.8319C90.4047 47.3961 85.7781 44.6839 85.7781 39.4191C85.7781 33.5161 90.7238 29.368 98.0626 29.368C103.008 29.368 106.678 31.4421 109.39 33.5161L105.082 39.2595C102.689 37.5046 100.615 36.5473 98.2222 36.5473C95.8291 36.5473 94.5527 37.5046 94.5527 39.1C94.5527 41.174 97.584 41.9717 100.934 43.248C105.082 44.6839 109.709 47.077 109.709 52.98C109.709 58.8829 105.082 63.3501 96.4672 63.3501C92.3192 63.3501 87.3735 61.5951 84.1827 58.8829L88.3307 52.6609ZM114.336 52.6609C117.207 54.8944 119.92 56.0112 122.632 56.0112C125.504 56.0112 126.78 54.8944 126.78 53.299C126.78 51.225 123.589 50.1082 120.239 48.8319C116.41 47.3961 111.783 44.6839 111.783 39.4191C111.783 33.5161 116.729 29.368 124.068 29.368C129.013 29.368 132.683 31.4421 135.395 33.5161L131.087 39.2595C128.694 37.5046 126.62 36.5473 124.227 36.5473C121.834 36.5473 120.558 37.5046 120.558 39.1C120.558 41.174 123.589 41.9717 126.78 43.248C130.928 44.6839 135.555 47.077 135.555 52.98C135.555 58.8829 130.928 63.3501 122.313 63.3501C118.165 63.3501 113.219 61.5951 110.028 58.8829L114.336 52.6609ZM137.948 67.0195C140.66 67.0195 141.457 66.0622 141.457 62.3928C141.457 58.8829 141.138 55.6921 141.138 51.8632C141.138 46.9174 142.734 45.003 145.925 44.2053V43.8862C142.734 43.0885 141.138 41.174 141.138 36.2283C141.138 32.3993 141.457 29.049 141.457 25.6986C141.457 22.1887 140.819 21.2315 137.948 21.2315H136.671V16.2858H140.819C146.563 16.2858 149.115 18.5193 149.115 25.5391C149.115 30.0062 148.477 32.5588 148.477 36.7069C148.477 38.9404 149.913 41.3335 154.061 41.4931V47.077C149.913 47.2365 148.477 49.6296 148.477 51.8632C148.477 56.0112 149.115 58.4043 149.115 63.031C149.115 70.0507 146.563 72.2843 140.819 72.2843H136.671V67.179L137.948 67.0195Z" fill="#214674"/>
</svg>
