<svg width="41" height="89" viewBox="0 0 41 89" fill="none" xmlns="http://www.w3.org/2000/svg">
<g clip-path="url(#clip0)">
<path d="M30.8712 85.8705L31.7204 71.7197L34.0653 67.7168C34.0653 67.7168 28.7283 69.9001 19.7932 69.9001C10.858 69.9001 5.60181 67.7572 5.60181 67.7572L8.2298 72.1237L9.15947 85.8705C9.15947 87.3443 14.0197 88.5389 20.0154 88.5389C26.0108 88.5389 30.8712 87.3443 30.8712 85.8705Z" fill="#D34A47"/>
<path d="M28.1924 19.788L29.9749 12.7423L39.846 2.35556L37.2443 0.139587L26.7937 11.2041L24.724 19.6219C23.2245 19.5712 21.6595 19.5441 20.0494 19.5441C9.04293 19.5441 0.120361 20.7985 0.120361 22.3455C0.120361 23.8926 9.04293 25.1468 20.0494 25.1468C31.0557 25.1468 39.9781 23.8926 39.9781 22.3455C39.9781 21.2063 35.139 20.2257 28.1924 19.788Z" fill="#D34A47"/>
<path d="M27.1553 23.7338C27.1553 23.7338 26.7693 23.8204 25.6337 23.8252C24.4978 23.8299 23.6912 23.8178 23.37 23.5252C23.2836 23.4467 23.2364 23.2906 23.2368 23.185C23.2378 22.9839 23.3805 22.8655 23.5623 22.7913L23.7343 23.0611C23.6595 23.0869 23.6168 23.1174 23.6166 23.15C23.616 23.3027 24.778 23.4072 25.6669 23.396C26.5558 23.385 27.63 23.3118 27.6309 23.1612C27.6309 23.1157 27.5497 23.0728 27.4084 23.039L27.5796 22.7711C27.8099 22.8426 28.011 22.9808 28.0105 23.2199C28.0083 23.6265 27.491 23.6883 27.1553 23.7338Z" fill="white"/>
<path d="M39.8267 2.37604C40.0749 2.08936 39.6982 1.35608 38.9854 0.738434C38.2723 0.121104 37.493 -0.147109 37.2444 0.13957C36.9961 0.426248 37.3729 1.15953 38.086 1.77686C38.7987 2.39435 39.5784 2.66288 39.8267 2.37604Z" fill="#D34A47"/>
<path d="M30.3966 51.3056C30.1626 49.0548 35.3199 45.7949 33.9963 45.6905C31.1471 45.8534 29.729 49.0296 28.2955 52.3561C27.7701 53.5753 25.9726 58.774 24.7937 58.134C23.615 57.4943 26.3217 53.2193 27.0804 50.6805C26.205 51.3224 22.9947 53.8166 22.1674 51.4808C20.8373 52.6104 17.995 53.2224 18.3157 50.255C17.6081 51.5085 16.0199 53.2584 14.1136 52.5312C11.6102 51.5765 15.5642 43.6019 16.5474 44.0043C17.5308 44.4064 16.349 46.223 16.0395 46.9285C15.3588 48.481 14.5724 50.4326 15.0977 50.8321C15.9977 51.5166 18.4467 48.2428 18.5011 48.1708C18.9591 47.5657 20.2641 43.6068 21.3158 44.0614C22.3675 44.516 18.6925 49.743 20.0666 50.7803C20.3437 50.9897 21.4776 50.6512 22.1674 49.905C22.6137 49.4222 22.4602 48.353 23.9479 44.8051C25.4356 41.2575 26.7614 36.8393 27.7817 37.1759C28.802 37.5124 27.9611 39.78 27.595 40.6253C25.8775 44.5928 22.9074 51.1474 24.3081 50.6512C25.7088 50.1552 26.4381 50.1261 27.8097 48.521C29.1813 46.916 29.1181 44.2722 30.0323 44.3283C30.9468 44.3847 30.7933 45.2323 30.5715 45.8778C31.4713 44.8482 34.8366 42.6796 35.6491 44.8274C36.6115 47.3701 30.8343 51.0429 32.2747 50.8556C33.6791 50.673 35.9544 49.2319 36.9259 47.9217L39.5999 23.8817C39.5999 23.8817 36.9091 26.1084 19.7907 26.1084C2.67213 26.1084 0.259766 23.928 0.259766 23.928L2.5363 45.8708C3.74467 42.4364 6.61412 35.4898 11.1371 35.723C13.1946 35.8291 15.9412 39.7908 13.5885 39.925C12.5926 39.9817 12.4915 37.9475 11.3122 37.6488C10.4613 37.4332 9.27654 38.125 8.51086 38.8746C6.98389 40.369 3.69976 46.2651 4.13369 49.2047C4.68654 52.9523 9.30517 47.9024 10.0867 46.4032C10.637 45.347 11.0088 42.218 12.2125 42.5463C13.4163 42.8746 12.1075 46.1038 11.2349 48.9589C10.2547 52.1647 9.73942 55.5465 8.51086 55.1575C7.28215 54.7688 9.28358 50.6301 9.21113 49.905C8.05627 50.9705 5.92871 53.6679 3.20683 52.3328L4.62066 65.9591C4.62066 65.9591 8.37832 68.9281 19.6979 68.9281C31.0175 68.9281 34.9143 66.0055 34.9143 66.0055L36.6699 50.2229C35.2335 51.6216 30.6876 54.1053 30.3966 51.3056Z" fill="#D34A47"/>
</g>
<defs>
<clipPath id="clip0">
<rect width="40.0599" height="88.57" fill="white"/>
</clipPath>
</defs>
</svg>
