<svg width="213" height="89" viewBox="0 0 213 89" fill="none" xmlns="http://www.w3.org/2000/svg">
<g clip-path="url(#clip0)">
<path d="M127.087 30.1469C122.437 30.1469 118.975 32.43 118.975 37.9248C118.975 42.0648 121.257 44.9387 126.837 44.9387C131.566 44.9387 134.778 42.1521 134.778 37.7539C134.778 32.7695 131.903 30.1472 127.087 30.1472V30.1469ZM117.788 68.9434C116.688 70.2937 115.591 71.7284 115.591 73.4217C115.591 76.7996 119.899 77.8162 125.816 77.8162C130.718 77.8162 137.395 77.4729 137.395 72.9154C137.395 70.2066 134.183 70.0388 130.124 69.7843L117.787 68.9434H117.788ZM142.804 30.4025C144.322 32.3469 145.93 35.0518 145.93 38.9394C145.93 48.32 138.577 53.8132 127.931 53.8132C125.224 53.8132 122.773 53.476 121.253 53.0541L118.463 57.5326L126.745 58.0385C141.367 58.9701 149.985 59.3935 149.985 70.6299C149.985 80.3515 141.451 85.8416 126.745 85.8416C111.448 85.8416 105.617 81.9535 105.617 75.2779C105.617 71.4732 107.308 69.4494 110.266 66.6562C107.476 65.477 106.548 63.3653 106.548 61.0824C106.548 59.2218 107.476 57.532 108.999 55.9251C110.52 54.3209 112.21 52.713 114.238 50.8542C110.098 48.8263 106.97 44.4315 106.97 38.1766C106.97 28.4589 113.394 21.7849 126.322 21.7849C129.956 21.7849 132.155 22.1194 134.099 22.6296H150.58V29.8114L142.804 30.4032" fill="#413000"/>
<path d="M165.456 15.0447C160.637 15.0447 157.85 12.2533 157.85 7.43425C157.85 2.62128 160.638 -0.000623703 165.456 -0.000623703C170.358 -0.000623703 173.147 2.62128 173.147 7.43425C173.147 12.2532 170.358 15.0447 165.456 15.0447ZM154.552 65.8328V59.1596L158.863 58.5698C160.047 58.3983 160.215 58.1468 160.215 56.8761V32.0297C160.215 31.102 159.963 30.5079 159.115 30.2563L154.552 28.6491L155.481 21.8061H172.977V56.8767C172.977 58.2314 173.058 58.399 174.33 58.5704L178.64 59.1603V65.8334H154.551" fill="#413000"/>
<path d="M212.06 62.5576C208.424 64.3302 203.101 65.9362 198.282 65.9362C188.225 65.9362 184.423 61.8835 184.423 52.3295V30.1889C184.423 29.6829 184.423 29.3434 183.744 29.3434H177.83V21.8221C185.269 20.9747 188.225 17.2554 189.155 8.0437H197.184V20.0485C197.184 20.638 197.184 20.8933 197.861 20.8933H209.777V29.3432H197.185V49.5409C197.185 54.5278 198.369 56.47 202.93 56.47C205.3 56.47 207.748 55.8802 209.776 55.1189L212.06 62.5582" fill="#413000"/>
<path d="M86.8377 40.3789L48.1928 1.7387C45.9692 -0.486854 42.3599 -0.486854 40.1336 1.7387L32.1094 9.76368L42.2878 19.9421C44.6541 19.1432 47.3663 19.6789 49.2515 21.5645C51.1466 23.4619 51.6785 26.1973 50.8595 28.5714L60.6697 38.3816C63.0431 37.5638 65.7815 38.0922 67.6766 39.9907C70.3262 42.6395 70.3262 46.9315 67.6766 49.581C65.0267 52.2314 60.7346 52.2314 58.0831 49.581C56.0909 47.5872 55.5981 44.66 56.6072 42.2053L47.4581 33.0562L47.4573 57.132C48.1033 57.4517 48.7129 57.8785 49.2512 58.4145C51.8999 61.063 51.8999 65.3543 49.2512 68.0072C46.6016 70.6556 42.3076 70.6556 39.6608 68.0072C37.0116 65.3545 37.0116 61.0632 39.6608 58.4145C40.3155 57.761 41.0731 57.2663 41.8814 56.9347V32.6353C41.0727 32.3051 40.316 31.8141 39.6603 31.1553C37.6537 29.1503 37.1704 26.2052 38.1995 23.7411L28.1656 13.7056L1.66993 40.2004C-0.556319 42.4277 -0.556319 46.037 1.66993 48.2627L40.3126 86.903C42.5374 89.1286 46.1454 89.1286 48.3733 86.903L86.8373 48.4453C89.0628 46.2186 89.0628 42.6082 86.8373 40.3822" fill="#F05133"/>
</g>
<defs>
<clipPath id="clip0">
<rect width="212.052" height="88.57" fill="white"/>
</clipPath>
</defs>
</svg>
