<svg width="89" height="89" viewBox="0 0 89 89" fill="none" xmlns="http://www.w3.org/2000/svg">
<path d="M88.57 0H0V88.57H88.57V0Z" fill="#F7DF1E"/>
<path d="M59.4967 69.1957C61.2808 72.1086 63.6019 74.2498 67.707 74.2498C71.1556 74.2498 73.3586 72.5262 73.3586 70.1446C73.3586 67.2907 71.0952 66.2799 67.2993 64.6195L65.2186 63.7268C59.2127 61.1681 55.2229 57.9627 55.2229 51.1864C55.2229 44.9444 59.9789 40.1925 67.4118 40.1925C72.7035 40.1925 76.5078 42.0342 79.2492 46.8563L72.7682 51.0177C71.3412 48.459 69.8018 47.451 67.4118 47.451C64.974 47.451 63.429 48.9975 63.429 51.0177C63.429 53.5146 64.9754 54.5254 68.5463 56.0718L70.627 56.9632C77.6986 59.9956 81.6912 63.0871 81.6912 70.0378C81.6912 77.5311 75.8049 81.6362 67.8996 81.6362C60.1701 81.6362 55.1765 77.9528 52.7331 73.1251L59.4967 69.1957ZM30.0957 69.9169C31.4032 72.2366 32.5925 74.1978 35.4521 74.1978C38.1865 74.1978 39.9115 73.1279 39.9115 68.9679V40.6677H48.2343V69.0804C48.2343 77.6984 43.1816 81.6208 35.8064 81.6208C29.1425 81.6208 25.2834 78.1722 23.3208 74.0185L30.0957 69.9169Z" fill="black"/>
</svg>
