<svg width="40" height="40" viewBox="0 0 40 40" fill="none" xmlns="http://www.w3.org/2000/svg">
<path d="M32.4999 36.25H32.2874C7.72494 34.8375 4.23744 14.1125 3.74994 7.7875C3.71066 7.29573 3.7688 6.80103 3.92104 6.33176C4.07327 5.8625 4.3166 5.42788 4.63709 5.05282C4.95758 4.67775 5.34893 4.36961 5.78871 4.14605C6.22849 3.92249 6.70806 3.7879 7.19994 3.75H14.0874C14.5881 3.74952 15.0774 3.89939 15.492 4.1802C15.9065 4.46102 16.2272 4.85984 16.4124 5.325L18.3124 10C18.4954 10.4544 18.5408 10.9526 18.443 11.4326C18.3452 11.9126 18.1086 12.3533 17.7624 12.7L15.0999 15.3875C15.5158 17.7509 16.6477 19.9296 18.3423 21.6287C20.037 23.3278 22.2126 24.4654 24.5749 24.8875L27.2874 22.2C27.6393 21.8577 28.0842 21.6266 28.5665 21.5354C29.0489 21.4443 29.5474 21.4972 29.9999 21.6875L34.7124 23.575C35.1706 23.7661 35.5615 24.0893 35.8353 24.5033C36.1091 24.9174 36.2535 25.4036 36.2499 25.9V32.5C36.2499 33.4946 35.8549 34.4484 35.1516 35.1517C34.4483 35.8549 33.4945 36.25 32.4999 36.25ZM7.49994 6.25C7.16842 6.25 6.85048 6.3817 6.61606 6.61612C6.38164 6.85054 6.24994 7.16848 6.24994 7.5V7.6C6.82494 15 10.5124 32.5 32.4249 33.75C32.5892 33.7601 32.7538 33.7378 32.9093 33.6842C33.0649 33.6306 33.2083 33.5468 33.3314 33.4376C33.4545 33.3285 33.5549 33.1961 33.6267 33.048C33.6985 32.9 33.7404 32.7393 33.7499 32.575V25.9L29.0374 24.0125L25.4499 27.575L24.8499 27.5C13.9749 26.1375 12.4999 15.2625 12.4999 15.15L12.4249 14.55L15.9749 10.9625L14.0999 6.25H7.49994Z" fill="black"/>
</svg>
