<svg width="90" height="90" viewBox="0 0 90 90" fill="none" xmlns="http://www.w3.org/2000/svg">
<path d="M4.0033 4.45367H85.7638V85.4586H4.0033V4.45367Z" fill="url(#paint0_radial)"/>
<path d="M4.00329 4.45367H85.7638V85.4586H4.00329V4.45367ZM0.28772 89.2423H89.4972V0.669922H0.28772V89.2423ZM58.7187 32.2496C58.7187 31.9404 58.8259 31.7949 59.1653 31.7949H65.0066C65.3102 31.7949 65.4531 31.904 65.4531 32.2496V62.1194C65.4531 62.4286 65.3817 62.5742 65.0066 62.5742H59.2367C58.8616 62.5742 58.7544 62.3923 58.7544 62.083V32.2496H58.7187ZM58.3078 23.6453C58.3078 21.2258 59.987 19.7888 62.0948 19.7888C64.3635 19.7888 65.8819 21.335 65.8819 23.6453C65.8819 26.1374 64.292 27.5018 62.0234 27.5018C59.8798 27.52 58.3078 26.1556 58.3078 23.6453ZM41.5877 44.6923C40.5517 40.4902 38.0865 31.3401 37.1576 26.9015H37.0862C36.3002 31.3219 34.3352 38.8166 32.7811 44.6923H41.5877ZM31.2627 50.8227L28.3331 62.174C28.2617 62.4832 28.1545 62.556 27.7794 62.556H22.3132C21.9381 62.556 21.8666 62.4468 21.9381 61.9921L32.4953 24.3729C32.6739 23.6998 32.799 23.0813 32.8704 21.2258C32.8704 20.953 32.9776 20.8438 33.1741 20.8438H40.9804C41.2483 20.8438 41.3555 20.9166 41.427 21.2258L53.2525 62.0648C53.3239 62.3741 53.2525 62.556 52.9488 62.556H46.786C46.4823 62.556 46.3037 62.4832 46.2322 62.2104L43.1776 50.8227H31.2627Z" fill="#FF7F18"/>
<defs>
<radialGradient id="paint0_radial" cx="0" cy="0" r="1" gradientUnits="userSpaceOnUse" gradientTransform="translate(30.9579 22.6309) scale(62.1406 61.2673)">
<stop stop-color="#423325" stop-opacity="0.98"/>
<stop offset="1" stop-color="#1C0A00"/>
</radialGradient>
</defs>
</svg>
