<svg width="63" height="89" viewBox="0 0 63 89" fill="none" xmlns="http://www.w3.org/2000/svg">
<g clip-path="url(#clip0)">
<path d="M62.7487 17.4061L57.0322 81.4462L31.336 88.57L5.71052 81.4562L0 17.4061H62.7487Z" fill="#264DE4"/>
<path d="M52.1383 77.3683L57.0235 22.6431H31.3745V83.1248L52.1383 77.3683Z" fill="#2965F1"/>
<path d="M13.0913 46.3984L13.7954 54.2538H31.3744V46.3984H13.0913Z" fill="#EBEBEB"/>
<path d="M31.3743 30.4987H31.3472H11.6765L12.3906 38.3543H31.3743V30.4987Z" fill="#EBEBEB"/>
<path d="M31.3743 74.9729V66.7999L31.3399 66.8091L22.5912 64.4468L22.0319 58.1817H17.7807H14.1462L15.2468 70.5159L31.3382 74.983L31.3743 74.9729Z" fill="#EBEBEB"/>
<path d="M14.7676 0H24.2819V3.97873H18.7463V7.95746H24.2819V11.9362H14.7676V0Z" fill="black"/>
<path d="M26.1846 0H35.6989V3.45977H30.1633V4.15172H35.6989V12.1092H26.1846V8.47643H31.7202V7.78447H26.1846V0Z" fill="black"/>
<path d="M37.6021 0H47.1164V3.45977H41.5808V4.15172H47.1164V12.1092H37.6021V8.47643H43.1377V7.78447H37.6021V0Z" fill="black"/>
<path d="M41.0203 54.2538L40.1085 64.4418L31.3472 66.8065V74.9792L47.4513 70.5159L47.5695 69.1887L49.4155 48.5078L49.6071 46.3984L51.0253 30.4987H31.3472V38.3543H42.4163L41.7016 46.3984H31.3472V54.2538H41.0203Z" fill="white"/>
</g>
<defs>
<clipPath id="clip0">
<rect width="62.7487" height="88.57" fill="white"/>
</clipPath>
</defs>
</svg>
