<svg width="119" height="89" viewBox="0 0 119 89" fill="none" xmlns="http://www.w3.org/2000/svg">
<g clip-path="url(#clip0)">
<path d="M101.685 50.9073C97.5651 50.9288 93.9843 51.9211 90.986 53.3879C89.8859 51.2092 88.7857 49.2679 88.5916 47.8442C88.3759 46.1832 88.117 45.1694 88.3759 43.1849C88.6347 41.2004 89.7996 38.3746 89.778 38.1589C89.7564 37.9432 89.5192 36.9293 87.1464 36.9078C84.7736 36.8862 82.7243 37.3608 82.487 37.9863C82.2498 38.6119 81.7968 40.0355 81.4948 41.5024C81.0849 43.6594 76.7492 51.3602 74.2685 55.394C73.4704 53.8193 72.7802 52.4388 72.6292 51.3387C72.4135 49.6777 72.1546 48.6639 72.4135 46.6794C72.6723 44.6948 73.8371 41.8691 73.8156 41.6534C73.794 41.4376 73.5567 40.4238 71.1839 40.4022C68.8111 40.3807 66.7619 40.8552 66.5246 41.4808C66.2873 42.1063 66.0285 43.5732 65.5323 44.9968C65.0362 46.4205 59.2768 59.2767 57.7668 62.5987C56.9903 64.3028 56.3216 65.6617 55.847 66.5893C55.847 66.5893 55.8255 66.654 55.7607 66.7618C55.3509 67.56 55.1136 67.9914 55.1136 67.9914C55.1136 67.9914 55.1136 67.9914 55.1136 68.0129C54.79 68.5954 54.4449 69.1346 54.2724 69.1346C54.1429 69.1346 53.9056 67.5815 54.3155 65.4676C55.1783 61.0024 57.2276 54.0566 57.206 53.8193C57.206 53.6899 57.5943 52.4819 55.8686 51.8564C54.1861 51.2308 53.5821 52.2662 53.4311 52.2662C53.2801 52.2662 53.1722 52.6329 53.1722 52.6329C53.1722 52.6329 55.0489 44.8243 49.5915 44.8243C46.1833 44.8243 41.4808 48.556 39.1512 51.9211C37.6843 52.7192 34.5566 54.4233 31.2131 56.2568C29.9404 56.9687 28.6246 57.6805 27.395 58.3492C27.3088 58.2629 27.2225 58.1551 27.1362 58.0688C20.5355 51.0151 8.3264 46.0322 8.8441 36.5626C9.03823 33.1113 10.2246 24.0515 32.2916 13.0504C50.4543 4.09847 64.9068 6.57912 67.409 12.0797C70.9898 19.9315 59.6651 34.5134 40.8984 36.6273C33.7369 37.4255 29.9836 34.6644 29.0344 33.629C28.0422 32.5504 27.8912 32.4857 27.5245 32.7014C26.9205 33.025 27.3088 33.9957 27.5245 34.5565C28.0853 36.0234 30.3934 38.6119 34.2977 39.8845C37.7491 41.0062 46.1401 41.6318 56.3 37.7059C67.6679 33.3054 76.5551 21.0747 73.945 10.8286C71.3349 0.431423 54.0782 -2.99834 37.7491 2.80422C28.0422 6.25556 17.5156 11.6914 9.94421 18.7667C0.949158 27.1793 -0.474519 34.4918 0.107895 37.5549C2.20027 48.4266 17.192 55.5018 23.1887 60.7436C22.8867 60.9161 22.6063 61.0671 22.369 61.1966C19.3707 62.6849 7.93812 68.6601 5.09077 74.9803C1.85514 82.1419 5.60847 87.2757 8.08912 87.966C15.7899 90.1015 23.7064 86.2619 27.9559 79.9201C32.2054 73.5782 31.6876 65.3382 29.7247 61.5633C29.7031 61.5201 29.6816 61.477 29.6384 61.4338C30.415 60.9808 31.2131 60.5063 31.9896 60.0533C33.5212 59.1473 35.0311 58.3061 36.3254 57.6158C35.592 59.6219 35.0527 62.0162 34.7939 65.4676C34.4703 69.5229 36.1312 74.7862 38.3099 76.857C39.2806 77.763 40.4239 77.7846 41.1573 77.7846C43.7026 77.7846 44.8459 75.6706 46.1186 73.1684C47.6717 70.1053 49.0738 66.5461 49.0738 66.5461C49.0738 66.5461 47.3265 76.1667 52.0721 76.1667C53.7978 76.1667 55.545 73.9234 56.3216 72.7801C56.3216 72.8017 56.3216 72.8017 56.3216 72.8017C56.3216 72.8017 56.3647 72.737 56.451 72.586C56.6236 72.3056 56.7314 72.133 56.7314 72.133C56.7314 72.133 56.7314 72.1114 56.7314 72.0898C57.4217 70.8819 58.9748 68.1424 61.2829 63.5909C64.2597 57.7236 67.1286 50.3896 67.1286 50.3896C67.1286 50.3896 67.3874 52.1799 68.2718 55.1567C68.7895 56.904 69.8681 58.8238 70.7309 60.6789C70.0407 61.6495 69.6092 62.1888 69.6092 62.1888C69.6092 62.1888 69.6092 62.1888 69.6308 62.2104C69.07 62.9438 68.466 63.7419 67.7973 64.5185C65.4461 67.3227 62.6418 70.5367 62.2536 71.4643C61.8006 72.5644 61.9084 73.3625 62.7713 74.0097C63.3968 74.4842 64.5185 74.5489 65.6618 74.4842C67.7757 74.3332 69.2641 73.8155 69.9975 73.492C71.1408 73.0821 72.4782 72.4565 73.7293 71.529C76.0374 69.8249 77.4395 67.3874 77.31 64.1733C77.2453 62.4045 76.6629 60.6357 75.9511 58.9748C76.1668 58.6728 76.3609 58.3708 76.5766 58.0688C80.2221 52.7408 83.0479 46.8951 83.0479 46.8951C83.0479 46.8951 83.3067 48.6855 84.1911 51.6622C84.6226 53.1722 85.507 54.8116 86.2835 56.4078C82.8538 59.1905 80.7398 62.4261 79.9848 64.54C78.6259 68.4659 79.6828 70.2347 81.6889 70.6446C82.5949 70.8387 83.8892 70.4073 84.8383 69.9975C86.0462 69.6092 87.4699 68.9405 88.8289 67.9482C91.137 66.2441 93.3588 63.8713 93.2293 60.6573C93.1646 59.1905 92.7764 57.7452 92.2371 56.3431C95.1491 55.1351 98.9025 54.4664 103.691 55.0273C113.959 56.2353 115.987 62.6418 115.598 65.3382C115.21 68.0345 113.053 69.5013 112.341 69.9543C111.629 70.4073 111.392 70.5583 111.457 70.8819C111.543 71.3564 111.888 71.3349 112.492 71.2486C113.333 71.0976 117.885 69.0699 118.079 64.1086C118.403 57.7668 112.363 50.8425 101.685 50.9073ZM22.4769 77.612C19.0687 81.3222 14.3231 82.7243 12.2739 81.5379C10.0736 80.2652 10.9365 74.7862 15.1212 70.8603C17.6666 68.4659 20.9454 66.2441 23.124 64.8852C23.6201 64.5832 24.3536 64.1518 25.238 63.6125C25.389 63.5262 25.4752 63.4831 25.4752 63.4831C25.6478 63.3752 25.8204 63.2674 25.9929 63.1595C27.5245 68.7679 26.0577 73.7077 22.4769 77.612ZM47.2834 60.7436C46.097 63.6341 43.6163 71.0329 42.1064 70.623C40.8121 70.2779 40.014 64.6695 41.8475 59.1258C42.7751 56.3431 44.738 53.0212 45.8813 51.7269C47.7364 49.6561 49.7856 48.9659 50.2817 49.8071C50.9073 50.9073 48.0168 58.9316 47.2834 60.7436ZM67.7541 70.5367C67.258 70.7956 66.7835 70.9682 66.5677 70.8387C66.4168 70.7524 66.7835 70.4073 66.7835 70.4073C66.7835 70.4073 69.3504 67.6462 70.3642 66.3951C70.9466 65.6617 71.6369 64.7989 72.3703 63.8282C72.3703 63.9145 72.3703 64.0223 72.3703 64.1086C72.3703 67.409 69.1778 69.6308 67.7541 70.5367ZM83.544 66.9344C83.1773 66.6756 83.242 65.8127 84.4716 63.1164C84.9461 62.0594 86.0678 60.2906 87.9876 58.5865C88.2033 59.2767 88.3543 59.9454 88.3328 60.571C88.3112 64.7342 85.3344 66.2873 83.544 66.9344Z" fill="#CD6799"/>
</g>
<defs>
<clipPath id="clip0">
<rect width="118.165" height="88.57" fill="white"/>
</clipPath>
</defs>
</svg>
